<?xml version="1.0" encoding="utf-8"?>
<svg version="1.1" viewBox="0 0 64 64" width="64px" height="64px" xmlns="http://www.w3.org/2000/svg">
  <title>Group</title>
  <desc>Created with Sketch.</desc>
  <g id="Group" stroke="none" stroke-width="1" fill="none" fill-rule="evenodd">
    <g id="Group-41" transform="translate(65.000000, 36.000000)">
      <g id="Group-3" fill="#4D4D4D"/>
    </g>
    <g id="Group-2" transform="matrix(1, 0, 0, 1, 1, 0)">
      <path d="M36.0340457,15.7317872 C31.5564648,14.5404477 27.5796076,15.6032 23.8826362,18.0404844 C20.329741,20.384411 17.5096267,23.520411 14.6487695,26.6065028 C11.0633981,30.4729248 7.41602667,34.2589064 2.5197981,36.5417688 C1.86496,36.8476771 1.20835048,37.1553468 0.552921905,37.4665394 C0.52103619,37.4818055 0.506274286,37.5299523 0.448998095,37.6103927 C3.04768381,40.8244844 6.21263619,43.3140257 10.3282552,44.1818422 C15.6850552,43.9328881 19.4186362,47.4282275 22.2222171,52.4842275 C22.3143314,52.6486312 22.4560457,52.7836771 22.6621219,53.0478972 C24.9968648,48.5091817 27.2099695,44.0098055 31.1106552,40.5567413 C30.3902743,39.8603743 29.7590552,39.2497321 29.0557981,38.5698055 C26.1175886,41.120411 23.9818362,44.2194202 22.1082552,47.7282642 C19.0106171,43.7837505 14.6475886,42.3064661 10.1133219,41.0493651 C8.44109333,40.5849248 6.90408381,39.6396037 5.33223619,38.7300991 C8.98964571,36.5018422 11.9113219,33.6805578 14.7397029,30.7436037 C17.3490171,28.0338789 19.9252648,25.285989 22.6343695,22.6760807 C25.1834552,20.2170716 28.1659505,18.4773284 31.809779,18.1220991 C32.0749029,18.0956771 32.3530171,17.9864661 32.5844838,17.8478972 C33.6928076,17.1861725 34.7845981,16.5021358 36.0340457,15.7317872" id="Fill-33" fill="#EC1C24"/>
      <path d="M50.0745657,26.4036404 C51.2543371,27.6396037 52.2681848,28.7017688 53.3788705,29.8660991 C52.3012514,30.8431266 51.1805276,31.861255 50.0745657,32.8641174 L50.0745657,26.4036404 Z M42.477499,28.7522642 L42.3983752,28.7522642 C40.1185467,27.5427229 37.8694229,26.7582826 37.8694229,23.9135119 C37.8694229,22.3217321 38.8336705,21.3294385 40.1392133,21.3294385 C41.9555181,21.3294385 42.4556514,22.5565945 42.5005276,22.7262826 C42.5223752,22.5565945 43.0225086,21.3294385 44.873061,21.3294385 C46.1443562,21.3294385 47.1097848,22.3217321 47.1097848,23.9135119 C47.1097848,26.7582826 44.3977276,27.7670165 42.477499,28.7522642 L42.477499,28.7522642 Z M34.9459752,33.2504661 C33.725461,31.9675303 32.6809086,30.8713101 31.8831752,30.0322642 C32.9336324,28.8397505 33.9161848,27.723567 34.9459752,26.5539523 L34.9459752,33.2504661 Z M50.4182229,41.9022092 C50.3213848,41.4818055 50.2434419,41.0567046 50.1566419,40.6339523 C50.2753276,40.7049982 50.3934229,40.7772183 50.5121086,40.8494385 C54.1388133,37.1215853 57.7649276,33.393145 61.4772514,29.5754569 C58.2827752,26.4899523 55.214661,23.326356 51.9097657,20.4281541 C50.46428,19.1610716 48.6420705,18.0707229 46.8045086,17.5428697 C41.4051943,15.9910165 36.4629086,16.9821358 32.3331181,21.0094385 C29.6948705,23.5811817 27.0513086,26.1458789 24.3918038,28.6964844 C24.1054229,28.9700991 23.7009467,29.1233468 23.2852514,29.3717138 C27.2373086,33.4148697 30.8964895,37.157989 34.7682419,41.1160073 C33.5896514,46.2060624 32.2923752,51.7194569 31.0488324,57.2440073 C30.796699,58.3648881 30.511499,59.557989 30.650261,60.6677138 C30.8817276,62.5055119 32.4813276,63.7062459 34.3123943,63.7772917 C36.0312705,63.8442275 37.6161086,62.7309798 38.07668,60.939567 C38.8655562,57.8652183 39.5640895,54.7685578 40.2756133,51.6736587 C40.9528895,48.7355303 41.5947371,45.7874202 42.2619752,42.846356 C42.293861,42.7036771 42.4202229,42.5827229 42.5985467,42.3020624 C43.7712324,47.5048514 44.9049467,52.5538055 46.0492895,57.5992367 C46.2813467,58.6173651 46.54588,59.629622 46.805099,60.6407046 C47.3967562,62.957622 49.3152133,64.1689248 51.5501657,63.642833 C53.6215562,63.1537321 54.8131371,61.0957505 54.297061,58.8293284 C53.0133657,53.184411 51.7107752,47.5441908 50.4182229,41.9022092 L50.4182229,41.9022092 Z" id="Fill-35" fill="#7A7A7A"/>
      <path d="M49.5948038,7.41343119 C49.5948038,11.3749725 46.36608,14.5873028 42.3809562,14.5873028 C38.3970133,14.5873028 35.1671086,11.3749725 35.1671086,7.41343119 C35.1671086,3.45188991 38.3970133,0.240146789 42.3809562,0.240146789 C46.36608,0.240146789 49.5948038,3.45188991 49.5948038,7.41343119" id="Fill-37" fill="#7A7A7A"/>
    </g>
  </g>
  <path style="fill: rgb(216, 216, 216); stroke: rgb(0, 0, 0);" d="M 32 32"/>
</svg>